<svg width="375" height="1181" viewBox="0 0 375 1181" fill="none" xmlns="http://www.w3.org/2000/svg">
<g filter="url(#filter0_d_43_633)">
<path fill-rule="evenodd" clip-rule="evenodd" d="M-184.149 62.6511C-230.04 262.327 -305.403 605.465 -68.0054 780.297C169.393 955.129 271.209 820.807 369.241 754.435C467.273 688.063 713.965 628.729 667.338 399.482C620.71 170.236 596.158 -235.69 417.819 -219.979C239.479 -204.267 267.802 -96.1595 154.045 -66.5552C40.2884 -36.9508 -138.259 -137.024 -184.149 62.6511Z" fill="url(#paint0_linear_43_633)"/>
</g>
<g filter="url(#filter1_d_43_633)">
<path fill-rule="evenodd" clip-rule="evenodd" d="M-180.389 80.7059C-211.513 267.438 -261.826 587.923 -37.2623 718.719C187.301 849.515 272.599 715.541 358.04 643.719C443.48 571.897 664.154 488.95 609.79 286.264C555.427 83.5784 511.795 -282.152 350.835 -246.872C189.875 -211.593 221.258 -116.758 119.617 -76.4715C17.9762 -36.1853 -149.265 -106.027 -180.389 80.7059Z" fill="url(#paint1_linear_43_633)"/>
</g>
<defs>
<filter id="filter0_d_43_633" x="-411.625" y="-399.169" width="1263.51" height="1444.43" filterUnits="userSpaceOnUse" color-interpolation-filters="sRGB">
<feFlood flood-opacity="0" result="BackgroundImageFix"/>
<feColorMatrix in="SourceAlpha" type="matrix" values="0 0 0 0 0 0 0 0 0 0 0 0 0 0 0 0 0 0 127 0" result="hardAlpha"/>
<feOffset/>
<feGaussianBlur stdDeviation="89.3737"/>
<feColorMatrix type="matrix" values="0 0 0 0 0.129427 0 0 0 0 0.224219 0 0 0 0 0.4375 0 0 0 0.3 0"/>
<feBlend mode="normal" in2="BackgroundImageFix" result="effect1_dropShadow_43_633"/>
<feBlend mode="normal" in="SourceGraphic" in2="effect1_dropShadow_43_633" result="shape"/>
</filter>
<filter id="filter1_d_43_633" x="-386.878" y="-427.998" width="1183.92" height="1380.53" filterUnits="userSpaceOnUse" color-interpolation-filters="sRGB">
<feFlood flood-opacity="0" result="BackgroundImageFix"/>
<feColorMatrix in="SourceAlpha" type="matrix" values="0 0 0 0 0 0 0 0 0 0 0 0 0 0 0 0 0 0 127 0" result="hardAlpha"/>
<feOffset/>
<feGaussianBlur stdDeviation="89.3737"/>
<feColorMatrix type="matrix" values="0 0 0 0 0.129427 0 0 0 0 0.224219 0 0 0 0 0.4375 0 0 0 0.3 0"/>
<feBlend mode="normal" in2="BackgroundImageFix" result="effect1_dropShadow_43_633"/>
<feBlend mode="normal" in="SourceGraphic" in2="effect1_dropShadow_43_633" result="shape"/>
</filter>
<linearGradient id="paint0_linear_43_633" x1="622.398" y1="629.328" x2="-273.443" y2="294.881" gradientUnits="userSpaceOnUse">
<stop stop-color="#E0695B"/>
<stop offset="1" stop-color="#3913B8"/>
</linearGradient>
<linearGradient id="paint1_linear_43_633" x1="581.117" y1="500.283" x2="-274.02" y2="-83.9876" gradientUnits="userSpaceOnUse">
<stop stop-color="#FC594F"/>
<stop offset="1" stop-color="#491EB8"/>
</linearGradient>
</defs>
</svg>
