<svg width="1526" height="1109" viewBox="0 0 1526 1109" fill="none" xmlns="http://www.w3.org/2000/svg">
<g filter="url(#filter0_d_70_231)">
<path fill-rule="evenodd" clip-rule="evenodd" d="M-10.5233 -81.6469C-95.6044 130.998 -235.328 496.424 204.807 682.612C644.942 868.799 833.71 725.752 1015.46 655.069C1197.21 584.387 1654.58 521.198 1568.13 277.062C1481.68 32.9253 1436.17 -399.366 1105.52 -382.634C774.883 -365.902 827.394 -250.772 616.489 -219.245C405.584 -187.718 74.5578 -294.292 -10.5233 -81.6469Z" fill="url(#paint0_linear_70_231)"/>
</g>
<g filter="url(#filter1_d_70_231)">
<path fill-rule="evenodd" clip-rule="evenodd" d="M-3.55073 -62.4196C-61.255 136.441 -154.534 477.742 261.806 617.033C678.146 756.325 836.288 613.649 994.695 537.162C1153.1 460.675 1562.23 372.341 1461.44 156.49C1360.65 -59.3604 1279.76 -448.845 981.337 -411.275C682.918 -373.704 741.101 -272.709 552.66 -229.806C364.218 -186.903 54.1535 -261.281 -3.55073 -62.4196Z" fill="url(#paint1_linear_70_231)"/>
</g>
<g opacity="0.5" filter="url(#filter2_d_70_231)">
<path fill-rule="evenodd" clip-rule="evenodd" d="M1559.73 332.7C1620.6 118.906 1718.87 -248.005 1270.32 -396.295C821.766 -544.585 652.555 -390.822 482.665 -308.155C312.776 -225.489 -126.663 -129.296 -16.9895 102.241C92.6841 333.777 181.999 751.889 502.688 710.577C823.376 669.266 760.204 560.966 962.593 514.279C1164.98 467.592 1498.86 546.494 1559.73 332.7Z" stroke="url(#paint2_linear_70_231)" stroke-width="20" stroke-linecap="round" stroke-dasharray="200 100"/>
</g>
<g opacity="0.2" filter="url(#filter3_d_70_231)">
<path fill-rule="evenodd" clip-rule="evenodd" d="M1519.39 234.488C1556.82 32.3259 1615.21 -314.27 1178.26 -426.549C741.304 -538.829 596.074 -386.29 443.558 -299.789C291.041 -213.287 -114.458 -98.8667 10.637 110.075C135.732 319.016 259.067 702.517 557.688 645.864C856.309 589.211 786.598 492.156 973.133 437.243C1159.67 382.329 1481.97 436.649 1519.39 234.488Z" stroke="url(#paint3_linear_70_231)" stroke-width="10" stroke-linecap="round" stroke-dasharray="100 50"/>
</g>
<g filter="url(#filter4_d_70_231)">
<path fill-rule="evenodd" clip-rule="evenodd" d="M1539.07 297.071C1598.13 75.4071 1693.1 -304.93 1227.04 -452.293C760.984 -599.655 588.921 -438.599 414.886 -350.985C240.85 -263.371 -211.417 -158.274 -93.9694 79.5009C23.4777 317.276 123.231 748.068 453.797 701.215C784.364 654.363 717.163 543.3 925.418 492.433C1133.67 441.566 1480.02 518.736 1539.07 297.071Z" stroke="url(#paint4_linear_70_231)" stroke-width="30" stroke-linecap="round" stroke-dasharray="200 100"/>
</g>
<defs>
<filter id="filter0_d_70_231" x="-279.614" y="-561.853" width="2037.25" height="1515.03" filterUnits="userSpaceOnUse" color-interpolation-filters="sRGB">
<feFlood flood-opacity="0" result="BackgroundImageFix"/>
<feColorMatrix in="SourceAlpha" type="matrix" values="0 0 0 0 0 0 0 0 0 0 0 0 0 0 0 0 0 0 127 0" result="hardAlpha"/>
<feOffset/>
<feGaussianBlur stdDeviation="89.3737"/>
<feColorMatrix type="matrix" values="0 0 0 0 0.129427 0 0 0 0 0.224219 0 0 0 0 0.4375 0 0 0 0.3 0"/>
<feBlend mode="normal" in2="BackgroundImageFix" result="effect1_dropShadow_70_231"/>
<feBlend mode="normal" in="SourceGraphic" in2="effect1_dropShadow_70_231" result="shape"/>
</filter>
<filter id="filter1_d_70_231" x="-233.731" y="-592.554" width="1889.69" height="1446.98" filterUnits="userSpaceOnUse" color-interpolation-filters="sRGB">
<feFlood flood-opacity="0" result="BackgroundImageFix"/>
<feColorMatrix in="SourceAlpha" type="matrix" values="0 0 0 0 0 0 0 0 0 0 0 0 0 0 0 0 0 0 127 0" result="hardAlpha"/>
<feOffset/>
<feGaussianBlur stdDeviation="89.3737"/>
<feColorMatrix type="matrix" values="0 0 0 0 0.129427 0 0 0 0 0.224219 0 0 0 0 0.4375 0 0 0 0.3 0"/>
<feBlend mode="normal" in2="BackgroundImageFix" result="effect1_dropShadow_70_231"/>
<feBlend mode="normal" in="SourceGraphic" in2="effect1_dropShadow_70_231" result="shape"/>
</filter>
<filter id="filter2_d_70_231" x="-223.516" y="-646.58" width="2026.05" height="1548.31" filterUnits="userSpaceOnUse" color-interpolation-filters="sRGB">
<feFlood flood-opacity="0" result="BackgroundImageFix"/>
<feColorMatrix in="SourceAlpha" type="matrix" values="0 0 0 0 0 0 0 0 0 0 0 0 0 0 0 0 0 0 127 0" result="hardAlpha"/>
<feOffset/>
<feGaussianBlur stdDeviation="89.3737"/>
<feColorMatrix type="matrix" values="0 0 0 0 0.129427 0 0 0 0 0.224219 0 0 0 0 0.4375 0 0 0 0.3 0"/>
<feBlend mode="normal" in2="BackgroundImageFix" result="effect1_dropShadow_70_231"/>
<feBlend mode="normal" in="SourceGraphic" in2="effect1_dropShadow_70_231" result="shape"/>
</filter>
<filter id="filter3_d_70_231" x="-194.766" y="-649.865" width="1923.38" height="1484.81" filterUnits="userSpaceOnUse" color-interpolation-filters="sRGB">
<feFlood flood-opacity="0" result="BackgroundImageFix"/>
<feColorMatrix in="SourceAlpha" type="matrix" values="0 0 0 0 0 0 0 0 0 0 0 0 0 0 0 0 0 0 127 0" result="hardAlpha"/>
<feOffset/>
<feGaussianBlur stdDeviation="89.3737"/>
<feColorMatrix type="matrix" values="0 0 0 0 0.129427 0 0 0 0 0.224219 0 0 0 0 0.4375 0 0 0 0.3 0"/>
<feBlend mode="normal" in2="BackgroundImageFix" result="effect1_dropShadow_70_231"/>
<feBlend mode="normal" in="SourceGraphic" in2="effect1_dropShadow_70_231" result="shape"/>
</filter>
<filter id="filter4_d_70_231" x="-307.539" y="-705.114" width="2091.09" height="1602.98" filterUnits="userSpaceOnUse" color-interpolation-filters="sRGB">
<feFlood flood-opacity="0" result="BackgroundImageFix"/>
<feColorMatrix in="SourceAlpha" type="matrix" values="0 0 0 0 0 0 0 0 0 0 0 0 0 0 0 0 0 0 127 0" result="hardAlpha"/>
<feOffset/>
<feGaussianBlur stdDeviation="89.3737"/>
<feColorMatrix type="matrix" values="0 0 0 0 0.129427 0 0 0 0 0.224219 0 0 0 0 0.4375 0 0 0 0.3 0"/>
<feBlend mode="normal" in2="BackgroundImageFix" result="effect1_dropShadow_70_231"/>
<feBlend mode="normal" in="SourceGraphic" in2="effect1_dropShadow_70_231" result="shape"/>
</filter>
<linearGradient id="paint0_linear_70_231" x1="1484.81" y1="521.836" x2="154.426" y2="-342.84" gradientUnits="userSpaceOnUse">
<stop stop-color="#FFA08B"/>
<stop offset="1" stop-color="#3913B8"/>
</linearGradient>
<linearGradient id="paint1_linear_70_231" x1="1408.28" y1="384.409" x2="445.27" y2="-761.073" gradientUnits="userSpaceOnUse">
<stop stop-color="#FC594F"/>
<stop offset="1" stop-color="#491EB8"/>
</linearGradient>
<linearGradient id="paint2_linear_70_231" x1="38.8187" y1="-142.752" x2="1436.23" y2="580.134" gradientUnits="userSpaceOnUse">
<stop stop-color="#FF9680"/>
<stop offset="1" stop-color="#FF4B4B"/>
</linearGradient>
<linearGradient id="paint3_linear_70_231" x1="40.3719" y1="-120.794" x2="1433.87" y2="452.457" gradientUnits="userSpaceOnUse">
<stop stop-color="#FF9680"/>
<stop offset="1" stop-color="#FF4B4B"/>
</linearGradient>
<linearGradient id="paint4_linear_70_231" x1="-40.6967" y1="-174.329" x2="1417.94" y2="550.242" gradientUnits="userSpaceOnUse">
<stop stop-color="#FF9680"/>
<stop offset="1" stop-color="#FF4B4B"/>
</linearGradient>
</defs>
</svg>
